<svg xmlns="http://www.w3.org/2000/svg" id="svgac" width="424.18333435058594" height="460"><rect x="172.09166717529297" y="0" fill="white" height="80" rx="2" ry="2" stroke="black" stroke-width="1" opacity="0.5" width="80"></rect><text x="212.09166717529297" y="20" text-anchor="middle">root</text><text x="212.09166717529297" y="40" font-weight="bold" text-anchor="middle">бѫдѫтъ</text><text x="212.09166717529297" y="60.150375939849624" text-anchor="middle">VERB</text><rect x="10" y="120" fill="white" height="80" rx="2" ry="2" stroke="black" stroke-width="1" opacity="0.5" width="80"></rect><text x="50" y="140" text-anchor="middle">cc</text><text x="50" y="160" font-weight="bold" text-anchor="middle">Ꙗко</text><text x="50" y="180.15037593984962" text-anchor="middle">SCONJ</text><rect x="110" y="120" fill="white" height="80" rx="2" ry="2" stroke="black" stroke-width="1" opacity="0.5" width="80"></rect><text x="150" y="140" text-anchor="middle">obl</text><text x="150" y="160" font-weight="bold" text-anchor="middle">вѣцѣ</text><text x="150" y="180.15037593984962" text-anchor="middle">NOUN</text><rect x="210" y="120" fill="white" height="80" rx="2" ry="2" stroke="black" stroke-width="1" opacity="0.5" width="104.18333435058594"></rect><text x="262.09166717529297" y="140" text-anchor="middle">nsubj</text><text x="262.09166717529297" y="160" font-weight="bold" text-anchor="middle">просла́вєни</text><text x="262.09166717529297" y="180.15037593984962" text-anchor="middle">VERB</text><rect x="334.18333435058594" y="120" fill="white" height="80" rx="2" ry="2" stroke="black" stroke-width="1" opacity="0.5" width="80"></rect><text x="374.18333435058594" y="140" text-anchor="middle">obl</text><text x="374.18333435058594" y="160" font-weight="bold" text-anchor="middle">ст͠ии</text><text x="374.18333435058594" y="180.15037593984962" text-anchor="middle">ADJ</text><rect x="12.025001525878906" y="240" fill="white" height="80" rx="2" ry="2" stroke="black" stroke-width="1" opacity="0.5" width="80"></rect><text x="52.025001525878906" y="260" text-anchor="middle">case</text><text x="52.025001525878906" y="280" font-weight="bold" text-anchor="middle">въ</text><text x="52.025001525878906" y="300.1503759398496" text-anchor="middle">ADP</text><rect x="112.0250015258789" y="240" fill="white" height="80" rx="2" ry="2" stroke="black" stroke-width="1" opacity="0.5" width="100.13333129882812"></rect><text x="162.09166717529297" y="260" text-anchor="middle">amod</text><text x="162.09166717529297" y="280" font-weight="bold" text-anchor="middle">бѫдѫщемъ</text><text x="162.09166717529297" y="300.1503759398496" text-anchor="middle">VERB</text><rect x="232.15833282470703" y="240" fill="white" height="80" rx="2" ry="2" stroke="black" stroke-width="1" opacity="0.5" width="80"></rect><text x="272.15833282470703" y="260" text-anchor="middle">amod</text><text x="272.15833282470703" y="280" font-weight="bold" text-anchor="middle">бо́лшее</text><text x="272.15833282470703" y="300.1503759398496" text-anchor="middle">ADV</text><rect x="332.15833282470703" y="240" fill="white" height="80" rx="2" ry="2" stroke="black" stroke-width="1" opacity="0.5" width="80"></rect><text x="372.15833282470703" y="260" text-anchor="middle">nmod</text><text x="372.15833282470703" y="280" font-weight="bold" text-anchor="middle">а҆́гг͠елъ</text><text x="372.15833282470703" y="300.1503759398496" text-anchor="middle">NOUN</text><rect x="172.09166717529297" y="360" fill="white" height="80" rx="2" ry="2" stroke="black" stroke-width="1" opacity="0.5" width="80"></rect><text x="212.09166717529297" y="380" text-anchor="middle">case</text><text x="212.09166717529297" y="400" font-weight="bold" text-anchor="middle">па́че</text><text x="212.09166717529297" y="420.1503759398496" text-anchor="middle">ADV</text><line stroke="blue" x1="50" y1="120" x2="212.09166717529297" y2="80"></line><line stroke="blue" x1="150" y1="120" x2="212.09166717529297" y2="80"></line><line stroke="blue" x1="262.09166717529297" y1="120" x2="212.09166717529297" y2="80"></line><line stroke="blue" x1="374.18333435058594" y1="120" x2="212.09166717529297" y2="80"></line><line stroke="blue" x1="52.025001525878906" y1="240" x2="150" y2="200"></line><line stroke="blue" x1="162.09166717529297" y1="240" x2="150" y2="200"></line><line stroke="blue" x1="272.15833282470703" y1="240" x2="262.09166717529297" y2="200"></line><line stroke="blue" x1="372.15833282470703" y1="240" x2="374.18333435058594" y2="200"></line><line stroke="blue" x1="212.09166717529297" y1="360" x2="372.15833282470703" y2="320"></line></svg>